<?xml version="1.0" standalone="no"?>
<!DOCTYPE svg PUBLIC "-//W3C//DTD SVG 1.0//EN" "http://www.w3.org/TR/2001/REC-SVG-20010904/DTD/svg10.dtd">
<svg xmlns="http://www.w3.org/2000/svg" xmlns:xlink="http://www.w3.org/1999/xlink" id="body_1" width="256" height="256">

<g transform="matrix(0.5 0 0 0.5 0 0)">
	<g transform="matrix(8 0 0 8 0 0)">
	</g>
    <path transform="matrix(8 0 0 8 0 0)"  d="M47 15L47 19L47 23L54 27L54 19L47 15z" stroke="none" fill="#9BC9FF" fill-rule="nonzero" />
	<g transform="matrix(8 0 0 8 0 0)">
	</g>
    <path transform="matrix(8 0 0 8 0 0)"  d="M54 27L61 23L61 15L54 19L54 27z" stroke="none" fill="#9BC9FF" fill-rule="nonzero" />
	<g transform="matrix(8 0 0 8 0 0)">
	</g>
    <path transform="matrix(8 0 0 8 0 0)"  d="M32 19L39 15L39 7L32 11L32 19z" stroke="none" fill="#9BC9FF" fill-rule="nonzero" />
	<g transform="matrix(8 0 0 8 0 0)">
	</g>
    <path transform="matrix(8 0 0 8 0 0)"  d="M32 11L25 7L25 15L32 19L32 11z" stroke="none" fill="#9BC9FF" fill-rule="nonzero" />
	<g transform="matrix(8 0 0 8 0 0)">
	</g>
    <path transform="matrix(8 0 0 8 0 0)"  d="M3 15L3 23L10 27L10 19L3 15z" stroke="none" fill="#9BC9FF" fill-rule="nonzero" />
	<g transform="matrix(8 0 0 8 0 0)">
	</g>
    <path transform="matrix(8 0 0 8 0 0)"  d="M17 19L17 15L10 19L10 27L17 23L17 19z" stroke="none" fill="#9BC9FF" fill-rule="nonzero" />
	<g transform="matrix(8 0 0 8 0 0)">
	</g>
    <path transform="matrix(8 0 0 8 0 0)"  d="M32 40L39 36L39 28L32 32L32 40z" stroke="none" fill="#9BC9FF" fill-rule="nonzero" />
	<g transform="matrix(8 0 0 8 0 0)">
	</g>
    <path transform="matrix(8 0 0 8 0 0)"  d="M25 28L25 36L32 40L32 32L25 28z" stroke="none" fill="#9BC9FF" fill-rule="nonzero" />
	<g transform="matrix(8 0 0 8 0 0)">
	</g>
    <path transform="matrix(8 0 0 8 0 0)"  d="M54 53L61 49L61 41L54 45L54 53z" stroke="none" fill="#9BC9FF" fill-rule="nonzero" />
	<g transform="matrix(8 0 0 8 0 0)">
	</g>
    <path transform="matrix(8 0 0 8 0 0)"  d="M47 41L47 49L54 53L54 45L47 41z" stroke="none" fill="#9BC9FF" fill-rule="nonzero" />
	<g transform="matrix(8 0 0 8 0 0)">
	</g>
    <path transform="matrix(8 0 0 8 0 0)"  d="M32 53L32 61L39 57L39 54L39 49L32 53z" stroke="none" fill="#9BC9FF" fill-rule="nonzero" />
	<g transform="matrix(8 0 0 8 0 0)">
	</g>
    <path transform="matrix(8 0 0 8 0 0)"  d="M25 49L25 54L25 57L32 61L32 53L25 49z" stroke="none" fill="#9BC9FF" fill-rule="nonzero" />
	<g transform="matrix(8 0 0 8 0 0)">
	</g>
    <path transform="matrix(8 0 0 8 0 0)"  d="M10 45L10 52L10 45L3 41L3 49L10 53L17 49L17 41L10 45z" stroke="none" fill="#9BC9FF" fill-rule="nonzero" />
	<g transform="matrix(8 0 0 8 0 0)">
	</g>
    <path transform="matrix(8 0 0 8 0 0)"  d="M61.5 23.868C 61.810013 23.689016 62.00071 23.357971 62 23L62 23L62 15C 62.00071 14.64203 61.810013 14.310986 61.5 14.132L61.5 14.132L54.5 10.132C 54.192635 9.9564295 53.81536 9.9564295 53.508 10.132L53.508 10.132L46.508 14.132C 46.194904 14.308938 46.000935 14.640369 46 15L46 15L46 17.382L40 14.382L40 7C 40.00071 6.642029 39.810013 6.310985 39.5 6.132L39.5 6.132L32.5 2.132C 32.192635 1.9564298 31.81536 1.9564298 31.508 2.132L31.508 2.132L24.508 6.132C 24.194904 6.308938 24.000933 6.64037 24 7L24 7L24 14.382L18 17.382L18 15C 18.000706 14.64203 17.810013 14.310986 17.5 14.132L17.5 14.132L10.5 10.132C 10.192638 9.9564295 9.815361 9.9564295 9.508 10.132L9.508 10.132L2.5080004 14.132C 2.1949062 14.308937 2.0009346 14.640369 2.0000005 15L2.0000005 15L2.0000005 23C 1.999294 23.357971 2.1899877 23.689016 2.5000005 23.868L2.5000005 23.868L9 27.58L9 36.42L2.5 40.131996C 2.1899872 40.310978 1.9992936 40.64202 2 40.999996L2 40.999996L2 48.999996C 1.9992936 49.35797 2.1899872 49.689014 2.5 49.867996L2.5 49.867996L9.5 53.867996C 9.807362 54.043564 10.184639 54.043564 10.492 53.867996L10.492 53.867996L16.973 50.167995L24 54.554996L24 56.999996C 23.999294 57.35797 24.189987 57.689014 24.5 57.867996L24.5 57.867996L31.5 61.867996C 31.807362 62.043564 32.18464 62.043564 32.492 61.867996L32.492 61.867996L39.492 57.867996C 39.805096 57.691063 39.999065 57.35963 40 56.999996L40 56.999996L40 54.554996L47.023 50.164997L53.503998 53.864998C 53.811363 54.040565 54.188637 54.040565 54.496 53.864998L54.496 53.864998L61.496 49.864998C 61.806625 49.687565 61.998814 49.35772 62 48.999996L62 48.999996L62 40.999996C 62.00071 40.64202 61.810013 40.310978 61.5 40.131996L61.5 40.131996L55 36.42L55 27.579998L61.5 23.868zM55 25.277L55 19.577L60 16.72L60 22.419998zM54 43.848L49.015 41L54 38.152L58.985 41zM48 16.723L53 19.58L53 25.279999L48 22.419998zM54 12.151999L58.985 15L54 17.848L49.015 15zM32 51.852L27.015 49L32 46.152L36.985 49zM26 29.723001L31 32.58L31 38.280003L26 35.420002zM33 32.58L38 29.723001L38 35.423L33 38.28zM32 30.848001L27.015 28.000002L32 25.152002L36.985 28.000002zM26 8.7230015L31 11.580002L31 17.280003L26 14.420003zM33 11.580002L38 8.7230015L38 14.423001L33 17.28zM32 4.152002L36.985 7.000002L32 9.8480015L27.015 7.0000014zM11 19.580002L16 16.723001L16 22.423L11 25.28zM10 12.152002L14.985001 15.000002L10 17.848001L5.015 15.000002zM4 16.723003L9 19.580004L9 25.280003L4 22.420002zM10 43.848003L5.015 41.000004L10 38.152004L14.985001 41.000004zM4 42.723003L9 45.58L9 51.280003L4 48.420002zM11 51.277004L11 45.577003L16 42.720005L16 48.420006zM18 48.445004L18 41.000004C 18.000706 40.64203 17.810013 40.310986 17.5 40.132004L17.5 40.132004L11 36.420006L11 27.580006L17.5 23.868006C 17.810013 23.689022 18.000706 23.357977 18 23.000006L18 23.000006L18 19.618006L24.969 16.134007L31 19.580006L31 23.420006L24.5 27.132006C 24.189987 27.31099 23.999294 27.642035 24 28.000006L24 28.000006L24 36.000008C 23.999294 36.35798 24.189987 36.689022 24.5 36.868008L24.5 36.868008L31 40.58001L31 44.42001L24.5 48.13201C 24.189987 48.310993 23.999294 48.642036 24 49.00001L24 49.00001L24 52.200012zM26 50.723003L31 53.58L31 59.280003L26 56.420002zM33 59.277004L33 53.577003L38 50.720005L38 56.420006zM39.5 48.132004L33 44.420006L33 40.580006L39.5 36.868004C 39.810013 36.689022 40.00071 36.35798 40 36.000004L40 36.000004L40 28.000004C 40.00071 27.642033 39.810013 27.310987 39.5 27.132004L39.5 27.132004L33 23.420004L33 19.580004L39.031 16.134003L46 19.618002L46 23.000002C 45.99929 23.357973 46.189987 23.689018 46.5 23.868002L46.5 23.868002L53 27.580002L53 36.420002L46.5 40.132004C 46.189987 40.310986 45.99929 40.64203 46 41.000004L46 41.000004L46 48.445004L40 52.200005L40 49.000004C 40.00071 48.64203 39.810013 48.310986 39.5 48.132004zM48 42.723003L53 45.58L53 51.280003L48 48.420002zM55 51.277004L55 45.577003L60 42.720005L60 48.420006z" stroke="none" fill="#1E81CE" fill-rule="nonzero" />
</g>
</svg>