<svg id="ewaBVqEo52A1" xmlns="http://www.w3.org/2000/svg" xmlns:xlink="http://www.w3.org/1999/xlink" viewBox="0 0 932 567.586110" shape-rendering="geometricPrecision" text-rendering="geometricPrecision"><path id="ewaBVqEo52A2" d="M173.377000,684.433440C181.355685,687.238081,190.219541,685.676747,196.759690,680.314670C204.949460,673.440260,207.517690,662.118670,209.606390,651.632760L215.786120,620.616190L202.848420,629.524560C193.543770,635.930970,184.030160,642.543220,177.588310,651.822410C171.146460,661.101600,168.336080,673.769480,173.510390,683.810410" transform="matrix(1 0 0 1 -134 -166.20699999999999)" fill="rgb(230,230,230)" stroke="none" stroke-width="1"/><path id="ewaBVqEo52A3" d="M175.374660,724.144000C173.746270,712.280320,172.070840,700.263220,173.215820,688.272330C174.230490,677.623010,177.479550,667.223520,184.094130,658.692950C187.605128,654.174426,191.877372,650.302944,196.718790,647.252560C197.980940,646.456090,199.142880,648.456100,197.886120,649.249560C189.508934,654.543582,183.029376,662.361165,179.381660,671.575180C175.353090,681.821250,174.706210,692.991000,175.400120,703.875480C175.819560,710.457660,176.710860,716.996680,177.606000,723.527990C177.752658,724.140862,177.399509,724.762594,176.798000,724.950500C176.182549,725.116287,175.548274,724.756018,175.375470,724.142500Z" transform="matrix(1 0 0 1 -134 -166.20699999999999)" fill="rgb(242,242,242)" stroke="none" stroke-width="1"/><path id="ewaBVqEo52A4" d="M187.095690,705.107550C190.517077,710.309528,196.404827,713.349280,202.627100,713.126170C210.491500,712.752990,217.045160,707.266440,222.944230,702.055900L240.396230,686.647100L228.846360,686.094290C220.540170,685.696450,212.019640,685.323290,204.108230,687.887680C196.196820,690.452070,188.900650,696.614060,187.454230,704.803080" transform="matrix(1 0 0 1 -134 -166.20699999999999)" fill="rgb(230,230,230)" stroke="none" stroke-width="1"/><path id="ewaBVqEo52A5" d="M170.771680,730.963690C178.611400,717.092270,187.704020,701.675750,203.952480,696.748170C208.469954,695.382857,213.206789,694.893745,217.907930,695.307170C219.389820,695.435170,219.019720,697.718910,217.540930,697.591710C209.660480,696.937451,201.795239,699.018267,195.269290,703.483860C188.989350,707.758400,184.099540,713.701420,179.961480,720.002930C177.426370,723.863440,175.155720,727.887380,172.885060,731.905930C172.159500,733.190390,170.037670,732.262850,170.771680,730.963690Z" transform="matrix(1 0 0 1 -134 -166.20699999999999)" fill="rgb(242,242,242)" stroke="none" stroke-width="1"/><rect id="ewaBVqEo52A6" width="648.366000" height="307.661000" rx="0" ry="0" transform="matrix(1 0 0 1 175.25200000000001 17.77539999999999)" fill="rgb(230,230,230)" stroke="none" stroke-width="1"/><rect id="ewaBVqEo52A7" width="611.286000" height="256.691000" rx="0" ry="0" transform="matrix(1 0 0 1 193.79300000000001 44.15780000000001)" fill="rgb(255,255,255)" stroke="none" stroke-width="1"/><rect id="ewaBVqEo52A8" width="648.366000" height="27.544500" rx="0" ry="0" transform="matrix(1 0 0 1 174.97600000000000 0)" fill="rgb(49,116,129)" stroke="none" stroke-width="1"/><circle id="ewaBVqEo52A9" r="5.105270" transform="matrix(1 0 0 1 195.44499999999999 12.74060000000000)" fill="rgb(255,255,255)" stroke="none" stroke-width="1"/><circle id="ewaBVqEo52A10" r="5.105270" transform="matrix(1 0 0 1 214.82300000000001 12.74060000000000)" fill="rgb(255,255,255)" stroke="none" stroke-width="1"/><circle id="ewaBVqEo52A11" r="5.105270" transform="matrix(1 0 0 1 234.20200000000000 12.74060000000000)" fill="rgb(255,255,255)" stroke="none" stroke-width="1"/><path id="ewaBVqEo52A12" style="isolation:isolate" d="M472.167180,406.996670L781.118110,406.996670L781.118110,354.043540C781.023317,342.763673,776.387473,331.997805,768.257760,324.177820L768.173760,324.095820C762.655700,318.559200,744.214540,304.507440,725.134210,305.698820C715.055110,306.326260,706.425960,311.183680,699.487000,320.136320C677.887880,348.013760,649.515320,338.603600,634.525080,330.513270C621.314390,323.381920,607.822930,320.034760,594.422790,320.567470C575.655700,321.301360,549.240900,328.214930,529.976740,356.984950C522.619080,367.964440,506.617860,382.868250,472.167170,391.627040Z" transform="matrix(1 0 0 1 -134 -166.20699999999999)" fill="rgb(228,228,228)" stroke="none" stroke-width="1"/><path id="ewaBVqEo52A13" d="M798.598390,408.228160L472.761770,408.228160C472.198606,408.228132,471.742078,407.771604,471.742050,407.208440L471.742050,251.034940C471.742050,250.471764,472.198594,250.015220,472.761770,250.015220C473.324946,250.015220,473.781490,250.471764,473.781490,251.034940L473.781490,406.188720L798.598390,406.188720C799.161566,406.188720,799.618110,406.645264,799.618110,407.208440C799.618110,407.771616,799.161566,408.228160,798.598390,408.228160Z" transform="matrix(1 0 0 1 -134 -166.20699999999999)" fill="rgb(63,61,86)" stroke="none" stroke-width="1"/><g id="ewaBVqEo52A14"><rect id="ewaBVqEo52A15" width="2" height="58.621600" rx="0" ry="0" transform="matrix(1 0 0 1 398.74099999999999 181.96500000000000)" fill="rgb(63,61,86)" stroke="none" stroke-width="1"/><circle id="ewaBVqEo52A16" r="6.118320" transform="matrix(1 0 0 1 399.74099999999999 181.96500000000000)" fill="rgb(49,116,129)" stroke="none" stroke-width="1"/></g><rect id="ewaBVqEo52A17" width="2" height="86" rx="0" ry="0" transform="matrix(1 0 0 1 458.61799999999999 154.58600000000001)" fill="rgb(63,61,86)" stroke="none" stroke-width="1"/><rect id="ewaBVqEo52A18" width="2" height="68" rx="0" ry="0" transform="matrix(1 0 0 1 518.61800000000005 172.58600000000001)" fill="rgb(63,61,86)" stroke="none" stroke-width="1"/><rect id="ewaBVqEo52A19" width="2" height="101" rx="0" ry="0" transform="matrix(1 0 0 1 578.61800000000005 139.58600000000001)" fill="rgb(63,61,86)" stroke="none" stroke-width="1"/><rect id="ewaBVqEo52A20" width="2" height="78" rx="0" ry="0" transform="matrix(1 0 0 1 638.61800000000005 162.58600000000001)" fill="rgb(63,61,86)" stroke="none" stroke-width="1"/><circle id="ewaBVqEo52A21" r="6.118320" transform="matrix(1 0 0 1 459.74099999999999 155.96500000000000)" fill="rgb(49,116,129)" stroke="none" stroke-width="1"/><circle id="ewaBVqEo52A22" r="6.118320" transform="matrix(1 0 0 1 579.74099999999999 139.96500000000000)" fill="rgb(49,116,129)" stroke="none" stroke-width="1"/><circle id="ewaBVqEo52A23" r="6.118320" transform="matrix(1 0 0 1 519.74099999999999 172.96500000000000)" fill="rgb(49,116,129)" stroke="none" stroke-width="1"/><circle id="ewaBVqEo52A24" r="6.118320" transform="matrix(1 0 0 1 639.74099999999999 161.96500000000000)" fill="rgb(49,116,129)" stroke="none" stroke-width="1"/><polygon id="ewaBVqEo52A25" points="136.913000,555.469000 149.173000,555.469000 155.005000,508.181000 136.911000,508.182000 136.913000,555.469000" fill="rgb(255,182,182)" stroke="none" stroke-width="1"/><path id="ewaBVqEo52A26" d="M267.785430,717.673700L291.929430,717.672700L291.930430,717.672700C300.427896,717.673147,307.316372,724.561534,307.316930,733.059000L307.316930,733.559000L267.786170,733.560470Z" transform="matrix(1 0 0 1 -134 -166.20699999999999)" fill="rgb(47,46,65)" stroke="none" stroke-width="1"/><polygon id="ewaBVqEo52A27" points="194.913000,555.469000 207.173000,555.469000 213.005000,508.181000 194.911000,508.182000 194.913000,555.469000" fill="rgb(255,182,182)" stroke="none" stroke-width="1"/><path id="ewaBVqEo52A28" d="M325.785430,717.673700L349.929430,717.672700L349.930430,717.672700C358.427896,717.673147,365.316372,724.561534,365.316930,733.059000L365.316930,733.559000L325.786170,733.560470Z" transform="matrix(1 0 0 1 -134 -166.20699999999999)" fill="rgb(47,46,65)" stroke="none" stroke-width="1"/><path id="ewaBVqEo52A29" d="M351.792860,505.491350C353.890520,503.102338,354.822260,499.906897,354.337365,496.764854C353.852471,493.622811,352.000752,490.856925,349.280470,489.211440L329.329100,393.422440L307.593180,401.986160L334.039480,493.450830C331.522820,498.310655,333.038770,504.284739,337.568131,507.356605C342.097493,510.428471,348.208603,509.627149,351.792860,505.491380Z" transform="matrix(1 0 0 1 -134 -166.20699999999999)" fill="rgb(255,182,182)" stroke="none" stroke-width="1"/><path id="ewaBVqEo52A30" d="M257.764410,487.045000L248.727930,496.217820C248.727930,496.217820,239.039540,531.721180,257.578820,575.507110L269.978820,702.457050L292.288820,704.136990L298.948870,556.441410L329.678810,605.467010L324.311250,703.612000L348.972440,703.045070L360.118110,594.293070L329.678810,480.808800Z" transform="matrix(1 0 0 1 -134 -166.20699999999999)" fill="rgb(47,46,65)" stroke="none" stroke-width="1"/><path id="ewaBVqEo52A31" d="M289.360790,499.402430C275.753560,499.307488,262.163783,498.409785,248.662300,496.714000L248.118840,496.641740L261.585400,437.456190L256.948400,361.305310L300.736000,359.805310C308.944395,359.507647,316.059170,365.440676,317.241130,373.568980L326.203040,434.324360L334.493040,488.226700L334.381960,488.388810C328.424510,497.124110,308.506050,499.402430,289.360790,499.402430Z" transform="matrix(1 0 0 1 -134 -166.20699999999999)" fill="rgb(49,116,129)" stroke="none" stroke-width="1"/><path id="ewaBVqEo52A32" d="M296.752000,372.400220L305.648850,361.247000C305.648850,361.247000,321.245790,350.581000,326.181970,373.437000C331.118150,396.293000,340.289360,433.397250,340.289360,433.397250L309.791360,435.866990Z" transform="matrix(1 0 0 1 -134 -166.20699999999999)" fill="rgb(49,116,129)" stroke="none" stroke-width="1"/><path id="ewaBVqEo52A33" d="M212.443360,506.491350C210.345700,504.102338,209.413960,500.906897,209.898855,497.764854C210.383749,494.622811,212.235468,491.856925,214.955750,490.211440L234.907120,394.422440L256.643040,402.986160L230.196740,494.450830C232.713400,499.310655,231.197450,505.284739,226.668089,508.356605C222.138727,511.428471,216.027617,510.627149,212.443360,506.491380Z" transform="matrix(1 0 0 1 -134 -166.20699999999999)" fill="rgb(255,182,182)" stroke="none" stroke-width="1"/><path id="ewaBVqEo52A34" d="M267.484250,373.400220L258.587400,362.247000C258.587400,362.247000,242.990460,351.581000,238.054280,374.437000C233.118100,397.293000,223.946890,434.397250,223.946890,434.397250L254.444890,436.866990Z" transform="matrix(1 0 0 1 -134 -166.20699999999999)" fill="rgb(49,116,129)" stroke="none" stroke-width="1"/><g id="ewaBVqEo52A35" transform="matrix(0.99979978805725 -0.02000959271645 0.02000959271645 0.99979978805725 -2.99224906220192 2.87115225959897)"><path id="ewaBVqEo52A36" d="M304.978300,348.668340L246.978300,348.668340C244.494179,348.665540,242.481100,346.652461,242.478300,344.168340L242.478300,319.168340C242.478300,300.666801,257.476761,285.668340,275.978300,285.668340C294.479839,285.668340,309.478300,300.666801,309.478300,319.168340L309.478300,344.168340C309.475500,346.652461,307.462421,348.665540,304.978300,348.668340Z" transform="matrix(1 0 0 1 -134 -166.20699999999999)" fill="rgb(47,46,65)" stroke="none" stroke-width="1"/><circle id="ewaBVqEo52A37" r="24.561000" transform="matrix(1 0 0 1 147.58331480833542 156.37801543430521)" fill="rgb(255,182,182)" stroke="none" stroke-width="1"/></g><path id="ewaBVqEo52A38" d="M317.403590,321.668340L281.938000,321.668340L281.574230,316.576540L279.755870,321.668340L274.294930,321.668340L273.574230,311.576540L269.970230,321.668340L259.403590,321.668340L259.403590,321.168340C259.419996,306.539689,271.274699,294.684878,285.903350,294.668340L290.903590,294.668340C305.532282,294.684873,317.387057,306.539648,317.403590,321.168340Z" transform="matrix(1 0 0 1 -134 -166.20699999999999)" fill="rgb(47,46,65)" stroke="none" stroke-width="1"/><path id="ewaBVqEo52A39" d="M281.647760,353.335090C281.380758,353.334829,281.114287,353.311304,280.851370,353.264780L254.881890,348.682780L254.881890,305.762830L283.469290,305.762830L282.761530,306.588020C272.914360,318.072400,280.333060,336.694470,285.631650,346.772590C286.428633,348.278898,286.291679,350.108702,285.279350,351.479590C284.436612,352.644903,283.085871,353.335042,281.647760,353.335090Z" transform="matrix(1 0 0 1 -134 -166.20699999999999)" fill="rgb(47,46,65)" stroke="none" stroke-width="1"/><polygon id="ewaBVqEo52A40" points="864.323000,555.469000 852.064000,555.469000 846.231000,508.181000 864.326000,508.182000 864.323000,555.469000" fill="rgb(158,97,106)" stroke="none" stroke-width="1"/><path id="ewaBVqEo52A41" d="M1001.450050,733.560420L961.919290,733.558950L961.919290,733.058950C961.919886,724.561519,968.808339,717.673178,977.305770,717.672720L977.306770,717.672720L1001.450770,717.673720Z" transform="matrix(1 0 0 1 -134 -166.20699999999999)" fill="rgb(47,46,65)" stroke="none" stroke-width="1"/><polygon id="ewaBVqEo52A42" points="820.323000,555.469000 808.064000,555.469000 802.231000,508.181000 820.326000,508.182000 820.323000,555.469000" fill="rgb(158,97,106)" stroke="none" stroke-width="1"/><path id="ewaBVqEo52A43" d="M957.450050,733.560420L917.919290,733.558950L917.919290,733.058950C917.919886,724.561519,924.808339,717.673178,933.305770,717.672720L933.306770,717.672720L957.450770,717.673720Z" transform="matrix(1 0 0 1 -134 -166.20699999999999)" fill="rgb(47,46,65)" stroke="none" stroke-width="1"/><g id="ewaBVqEo52A44" transform="matrix(0.99996047931012 0.00889043406531 -0.00889043406531 0.99996047931012 5.52559105515229 -6.63687214359939)"><path id="ewaBVqEo52A45" d="M811.537900,390.320370C813.521381,393.048141,816.611220,394.757251,819.976005,394.987814C823.340789,395.218378,826.634878,393.946709,828.971900,391.514990L853.230420,400.988090L862.582690,387.650320L828.137080,374.753620C823.694167,371.016295,817.158119,371.192666,812.923223,375.164156C808.688327,379.135647,808.093168,385.646931,811.537880,390.320370Z" transform="matrix(1 0 0 1 -134 -166.20699999999999)" fill="rgb(158,97,106)" stroke="none" stroke-width="1"/><path id="ewaBVqEo52A46" d="M946.815000,347.777000L932.618150,337.793060C932.618150,337.793060,931.779570,336.631640,919.948860,350.462350C908.118150,364.293060,884.118150,386.293060,884.118150,386.293060L844.118150,371.293060L836.830750,398.218000L883.318940,419.882000L949.134940,375.926890Z" transform="matrix(1 0 0 1 -137.60600776763661 -166.52324111673758)" fill="rgb(63,61,86)" stroke="none" stroke-width="1"/></g><polygon id="ewaBVqEo52A47" points="820.169000,304.925000 788.229000,315.344000 798.899000,541.540000 823.549000,542.150000 836.164000,382.633000 839.029000,541.520000 869.508000,543.200000 880.744000,304.925000 820.169000,304.925000" fill="rgb(47,46,65)" stroke="none" stroke-width="1"/><path id="ewaBVqEo52A48" d="M932.618110,337.793060L1014.592870,319.982000L1023.708710,390.567000L1016.118110,424.293060L1019.158540,475.547060C1019.158540,475.547060,954.339910,507.808400,922.229010,481.550730C922.229010,481.550730,948.038010,413.761010,933.078090,382.027040Z" transform="matrix(1 0 0 1 -134 -166.20699999999999)" fill="rgb(63,61,86)" stroke="none" stroke-width="1"/><path id="ewaBVqEo52A49" d="M1019.173380,502.005700C1022.222930,500.565132,1024.477763,497.847785,1025.331143,494.584852C1026.184523,491.321918,1025.548787,487.848579,1023.595000,485.099450L1037.421550,463.030450L1026.059550,451.357120L1006.971550,482.797120C1002.471938,486.465991,1001.427563,492.920478,1004.540577,497.821118C1007.653592,502.721757,1013.940017,504.519529,1019.173380,502.005760Z" transform="matrix(1 0 0 1 -134 -166.20699999999999)" fill="rgb(158,97,106)" stroke="none" stroke-width="1"/><path id="ewaBVqEo52A50" d="M1001.807090,333.887000L1014.592870,319.982000C1014.592870,319.982000,1028.839130,315.020860,1040.478620,340.657000C1052.118110,366.293140,1065.118110,418.293100,1065.118110,418.293100L1034.723240,476.840340L1011.118110,466.293100L1034.723240,417.879710L1009.744090,382.027000Z" transform="matrix(1 0 0 1 -134 -166.20699999999999)" fill="rgb(63,61,86)" stroke="none" stroke-width="1"/><circle id="ewaBVqEo52A51" r="26.609200" transform="matrix(0.87745500000000 -0.47965900000000 0.47965900000000 0.87745500000000 833.36344336100001 124.63815280299991)" fill="rgb(158,97,106)" stroke="none" stroke-width="1"/><path id="ewaBVqEo52A52" d="M992.389440,269.571450L993.679440,266.975080L987.188490,263.750080C987.188490,263.750080,980.027940,252.099080,967.070650,255.373280C954.113360,258.647480,948.283650,260.606990,948.283650,260.606990L941.809120,263.864750L945.058650,267.097940L939.229110,269.057530L943.123660,270.992530L938.592250,273.597090L941.031600,286.948970C941.031600,286.948970,945.083200,276.822080,952.872280,280.692050C960.661360,284.562020,974.908780,278.691520,974.908780,278.691520L987.286640,302.646600C987.286640,302.646600,989.840200,294.249150,994.393040,296.488300C994.393140,296.488320,1006.024460,277.964610,992.389440,269.571450Z" transform="matrix(1 0 0 1 -134 -166.20699999999999)" fill="rgb(47,46,65)" stroke="none" stroke-width="1"/><path id="ewaBVqEo52A53" d="M434,733.793060L135,733.793060C134.447715,733.793060,134,733.345345,134,732.793060C134,732.240775,134.447715,731.793060,135,731.793060L434,731.793060C434.552285,731.793060,435,732.240775,435,732.793060C435,733.345345,434.552285,733.793060,434,733.793060Z" transform="matrix(1 0 0 1 -134 -166.20699999999999)" fill="rgb(202,202,202)" stroke="none" stroke-width="1"/><path id="ewaBVqEo52A54" d="M1065,733.793060L836,733.793060C835.447715,733.793060,835,733.345345,835,732.793060C835,732.240775,835.447715,731.793060,836,731.793060L1065,731.793060C1065.552285,731.793060,1066,732.240775,1066,732.793060C1066,733.345345,1065.552285,733.793060,1065,733.793060Z" transform="matrix(1 0 0 1 -134 -166.20699999999999)" fill="rgb(202,202,202)" stroke="none" stroke-width="1"/><script><![CDATA[!function(t,n){"object"==typeof exports&&"undefined"!=typeof module?module.exports=n():"function"==typeof define&&define.amd?define(n):(t="undefined"!=typeof globalThis?globalThis:t||self).__SVGATOR_PLAYER__=n()}(this,(function(){"use strict";function t(n){return(t="function"==typeof Symbol&&"symbol"==typeof Symbol.iterator?function(t){return typeof t}:function(t){return t&&"function"==typeof Symbol&&t.constructor===Symbol&&t!==Symbol.prototype?"symbol":typeof t})(n)}function n(t,n){if(!(t instanceof n))throw new TypeError("Cannot call a class as a function")}function r(t,n){for(var r=0;r<n.length;r++){var e=n[r];e.enumerable=e.enumerable||!1,e.configurable=!0,"value"in e&&(e.writable=!0),Object.defineProperty(t,e.key,e)}}function e(t,n,e){return n&&r(t.prototype,n),e&&r(t,e),t}function i(t){return(i=Object.setPrototypeOf?Object.getPrototypeOf:function(t){return t.__proto__||Object.getPrototypeOf(t)})(t)}function o(t,n){return(o=Object.setPrototypeOf||function(t,n){return t.__proto__=n,t})(t,n)}function u(t,n){return!n||"object"!=typeof n&&"function"!=typeof n?function(t){if(void 0===t)throw new ReferenceError("this hasn't been initialised - super() hasn't been called");return t}(t):n}function a(t){var n=function(){if("undefined"==typeof Reflect||!Reflect.construct)return!1;if(Reflect.construct.sham)return!1;if("function"==typeof Proxy)return!0;try{return Boolean.prototype.valueOf.call(Reflect.construct(Boolean,[],(function(){}))),!0}catch(t){return!1}}();return function(){var r,e=i(t);if(n){var o=i(this).constructor;r=Reflect.construct(e,arguments,o)}else r=e.apply(this,arguments);return u(this,r)}}function l(t,n,r){return(l="undefined"!=typeof Reflect&&Reflect.get?Reflect.get:function(t,n,r){var e=function(t,n){for(;!Object.prototype.hasOwnProperty.call(t,n)&&null!==(t=i(t)););return t}(t,n);if(e){var o=Object.getOwnPropertyDescriptor(e,n);return o.get?o.get.call(r):o.value}})(t,n,r||t)}var f=Math.abs;function s(t){return t}function c(t,n,r){var e=1-r;return 3*r*e*(t*e+n*r)+r*r*r}function h(){var t=arguments.length>0&&void 0!==arguments[0]?arguments[0]:0,n=arguments.length>1&&void 0!==arguments[1]?arguments[1]:0,r=arguments.length>2&&void 0!==arguments[2]?arguments[2]:1,e=arguments.length>3&&void 0!==arguments[3]?arguments[3]:1;return t<0||t>1||r<0||r>1?null:f(t-n)<=1e-5&&f(r-e)<=1e-5?s:function(i){if(i<=0)return t>0?i*n/t:0===n&&r>0?i*e/r:0;if(i>=1)return r<1?1+(i-1)*(e-1)/(r-1):1===r&&t<1?1+(i-1)*(n-1)/(t-1):1;for(var o,u=0,a=1;u<a;){var l=c(t,r,o=(u+a)/2);if(f(i-l)<1e-5)break;l<i?u=o:a=o}return c(n,e,o)}}function v(){return 1}function y(t){return 1===t?1:0}function d(){var t=arguments.length>0&&void 0!==arguments[0]?arguments[0]:1,n=arguments.length>1&&void 0!==arguments[1]?arguments[1]:0;if(1===t){if(0===n)return y;if(1===n)return v}var r=1/t;return function(t){return t>=1?1:(t+=n*r)-t%r}}function g(t){var n=arguments.length>1&&void 0!==arguments[1]?arguments[1]:2;if(Number.isInteger(t))return t;var r=Math.pow(10,n);return Math.round(t*r)/r}var p=Math.PI/180;function m(t,n,r){return t>=.5?r:n}function b(t,n,r){return 0===t||n===r?n:t*(r-n)+n}function w(t,n,r){var e=b(t,n,r);return e<=0?0:e}function x(t,n,r){return 0===t?n:1===t?r:{x:b(t,n.x,r.x),y:b(t,n.y,r.y)}}function k(t,n,r){var e=function(t,n,r){return Math.round(b(t,n,r))}(t,n,r);return e<=0?0:e>=255?255:e}function A(t,n,r){return 0===t?n:1===t?r:{r:k(t,n.r,r.r),g:k(t,n.g,r.g),b:k(t,n.b,r.b),a:b(t,null==n.a?1:n.a,null==r.a?1:r.a)}}function _(t,n,r){if(0===t)return n;if(1===t)return r;var e=n.length;if(e!==r.length)return m(t,n,r);for(var i=[],o=0;o<e;o++)i.push(A(t,n[o],r[o]));return i}function S(t,n){for(var r=[],e=0;e<t;e++)r.push(n);return r}function O(t,n){if(--n<=0)return t;var r=(t=Object.assign([],t)).length;do{for(var e=0;e<r;e++)t.push(t[e])}while(--n>0);return t}var M,j=function(){function t(r){n(this,t),this.list=r,this.length=r.length}return e(t,[{key:"setAttribute",value:function(t,n){for(var r=this.list,e=0;e<this.length;e++)r[e].setAttribute(t,n)}},{key:"removeAttribute",value:function(t){for(var n=this.list,r=0;r<this.length;r++)n[r].removeAttribute(t)}},{key:"style",value:function(t,n){for(var r=this.list,e=0;e<this.length;e++)r[e].style[t]=n}}]),t}(),F=/-./g,P=function(t,n){return n.toUpperCase()};function B(t){return"function"==typeof t?t:m}function I(t){return t?"function"==typeof t?t:Array.isArray(t)?function(t){var n=arguments.length>1&&void 0!==arguments[1]?arguments[1]:s;if(!Array.isArray(t))return n;switch(t.length){case 1:return d(t[0])||n;case 2:return d(t[0],t[1])||n;case 4:return h(t[0],t[1],t[2],t[3])||n}return n}(t,null):function(t,n){var r=arguments.length>2&&void 0!==arguments[2]?arguments[2]:s;switch(t){case"linear":return s;case"steps":return d(n.steps||1,n.jump||0)||r;case"bezier":case"cubic-bezier":return h(n.x1||0,n.y1||0,n.x2||0,n.y2||0)||r}return r}(t.type,t.value,null):null}function R(t,n,r){var e=arguments.length>3&&void 0!==arguments[3]&&arguments[3],i=n.length-1;if(t<=n[0].t)return e?[0,0,n[0].v]:n[0].v;if(t>=n[i].t)return e?[i,1,n[i].v]:n[i].v;var o,u=n[0],a=null;for(o=1;o<=i;o++){if(!(t>n[o].t)){a=n[o];break}u=n[o]}return null==a?e?[i,1,n[i].v]:n[i].v:u.t===a.t?e?[o,1,a.v]:a.v:(t=(t-u.t)/(a.t-u.t),u.e&&(t=u.e(t)),e?[o,t,r(t,u.v,a.v)]:r(t,u.v,a.v))}function q(t,n){var r=arguments.length>2&&void 0!==arguments[2]?arguments[2]:null;return t&&t.length?"function"!=typeof n?null:("function"!=typeof r&&(r=null),function(e){var i=R(e,t,n);return null!=i&&r&&(i=r(i)),i}):null}function E(t,n){return t.t-n.t}function T(n,r,e,i,o){var u,a="@"===e[0],l="#"===e[0],f=M[e],s=m;switch(a?(u=e.substr(1),e=u.replace(F,P)):l&&(e=e.substr(1)),t(f)){case"function":if(s=f(i,o,R,I,e,a,r,n),l)return s;break;case"string":s=q(i,B(f));break;case"object":if((s=q(i,B(f.i),f.f))&&"function"==typeof f.u)return f.u(r,s,e,a,n)}return s?function(t,n,r){var e=arguments.length>3&&void 0!==arguments[3]&&arguments[3];if(e)return t instanceof j?function(e){return t.style(n,r(e))}:function(e){return t.style[n]=r(e)};if(Array.isArray(n)){var i=n.length;return function(e){var o=r(e);if(null==o)for(var u=0;u<i;u++)t[u].removeAttribute(n);else for(var a=0;a<i;a++)t[a].setAttribute(n,o)}}return function(e){var i=r(e);null==i?t.removeAttribute(n):t.setAttribute(n,i)}}(r,e,s,a):null}function N(n,r,e,i){if(!i||"object"!==t(i))return null;var o=null,u=null;return Array.isArray(i)?u=function(t){if(!t||!t.length)return null;for(var n=0;n<t.length;n++)t[n].e&&(t[n].e=I(t[n].e));return t.sort(E)}(i):(u=i.keys,o=i.data||null),u?T(n,r,e,u,o):null}function C(t,n,r){if(!r)return null;var e=[];for(var i in r)if(r.hasOwnProperty(i)){var o=N(t,n,i,r[i]);o&&e.push(o)}return e.length?e:null}function z(t,n){if(!n.duration||n.duration<0)return null;var r=function(t,n){if(!n)return null;var r=[];if(Array.isArray(n))for(var e=n.length,i=0;i<e;i++){var o=n[i];if(2===o.length){var u=null;if("string"==typeof o[0])u=t.getElementById(o[0]);else if(Array.isArray(o[0])){u=[];for(var a=0;a<o[0].length;a++)if("string"==typeof o[0][a]){var l=t.getElementById(o[0][a]);l&&u.push(l)}u=u.length?1===u.length?u[0]:new j(u):null}if(u){var f=C(t,u,o[1]);f&&(r=r.concat(f))}}}else for(var s in n)if(n.hasOwnProperty(s)){var c=t.getElementById(s);if(c){var h=C(t,c,n[s]);h&&(r=r.concat(h))}}return r.length?r:null}(t,n.elements);return r?function(t,n){var r=arguments.length>2&&void 0!==arguments[2]?arguments[2]:1/0,e=arguments.length>3&&void 0!==arguments[3]?arguments[3]:1,i=arguments.length>4&&void 0!==arguments[4]&&arguments[4],o=arguments.length>5&&void 0!==arguments[5]?arguments[5]:1,u=t.length,a=e>0?n:0;i&&r%2==0&&(a=n-a);var l=null;return function(f,s){var c=f%n,h=1+(f-c)/n;s*=e,i&&h%2==0&&(s=-s);var v=!1;if(h>r)c=a,v=!0,-1===o&&(c=e>0?0:n);else if(s<0&&(c=n-c),c===l)return!1;l=c;for(var y=0;y<u;y++)t[y](c);return v}}(r,n.duration,n.iterations||1/0,n.direction||1,!!n.alternate,n.fill||1):null}var L=function(){function t(r,e){var i=arguments.length>2&&void 0!==arguments[2]?arguments[2]:{};n(this,t),this._id=0,this._running=!1,this._rollingBack=!1,this._animations=r,this.duration=e.duration,this.alternate=e.alternate,this.fill=e.fill,this.iterations=e.iterations,this.direction=i.direction||1,this.speed=i.speed||1,this.fps=i.fps||100,this.offset=i.offset||0,this.rollbackStartOffset=0}return e(t,[{key:"_rollback",value:function(){var t=this,n=1/0,r=null;this.rollbackStartOffset=this.offset,this._rollingBack||(this._rollingBack=!0,this._running=!0);this._id=window.requestAnimationFrame((function e(i){if(t._rollingBack){null==r&&(r=i);var o=i-r,u=t.rollbackStartOffset-o,a=Math.round(u*t.speed);if(a>t.duration&&n!=1/0){var l=!!t.alternate&&a/t.duration%2>1,f=a%t.duration;a=(f+=l?t.duration:0)||t.duration}var s=t.fps?1e3/t.fps:0,c=Math.max(0,a);if(c<n-s){t.offset=c,n=c;for(var h=t._animations,v=h.length,y=0;y<v;y++)h[y](c,t.direction)}var d=!1;if(t.iterations>0&&-1===t.fill){var g=t.iterations*t.duration,p=g==a;a=p?0:a,t.offset=p?0:t.offset,d=a>g}a>0&&t.offset>=a&&!d?t._id=window.requestAnimationFrame(e):t.stop()}}))}},{key:"_start",value:function(){var t=this,n=arguments.length>0&&void 0!==arguments[0]?arguments[0]:0,r=-1/0,e=null,i={},o=function o(u){t._running=!0,null==e&&(e=u);var a=Math.round((u-e+n)*t.speed),l=t.fps?1e3/t.fps:0;if(a>r+l&&!t._rollingBack){t.offset=a,r=a;for(var f=t._animations,s=f.length,c=0,h=0;h<s;h++)i[h]?c++:(i[h]=f[h](a,t.direction),i[h]&&c++);if(c===s)return void t._stop()}t._id=window.requestAnimationFrame(o)};this._id=window.requestAnimationFrame(o)}},{key:"_stop",value:function(){this._id&&window.cancelAnimationFrame(this._id),this._running=!1,this._rollingBack=!1}},{key:"play",value:function(){!this._rollingBack&&this._running||(this._rollingBack=!1,this.rollbackStartOffset>this.duration&&(this.offset=this.rollbackStartOffset-(this.rollbackStartOffset-this.offset)%this.duration,this.rollbackStartOffset=0),this._start(this.offset))}},{key:"stop",value:function(){this._stop(),this.offset=0,this.rollbackStartOffset=0;var t=this.direction,n=this._animations;window.requestAnimationFrame((function(){for(var r=0;r<n.length;r++)n[r](0,t)}))}},{key:"reachedToEnd",value:function(){return this.iterations>0&&this.offset>=this.iterations*this.duration}},{key:"restart",value:function(){this._stop(),this.offset=0,this._start()}},{key:"pause",value:function(){this._stop()}},{key:"reverse",value:function(){this.direction=-this.direction}}],[{key:"build",value:function(n,r){return(n=function(t,n){if(M=n,!t||!t.root||!Array.isArray(t.animations))return null;for(var r=document.getElementsByTagName("svg"),e=!1,i=0;i<r.length;i++)if(r[i].id===t.root&&!r[i].svgatorAnimation){(e=r[i]).svgatorAnimation=!0;break}if(!e)return null;var o=t.animations.map((function(t){return z(e,t)})).filter((function(t){return!!t}));return o.length?{element:e,animations:o,animationSettings:t.animationSettings,options:t.options||void 0}:null}(n,r))?{el:n.element,options:n.options||{},player:new t(n.animations,n.animationSettings,n.options)}:null}}]),t}();!function(){for(var t=0,n=["ms","moz","webkit","o"],r=0;r<n.length&&!window.requestAnimationFrame;++r)window.requestAnimationFrame=window[n[r]+"RequestAnimationFrame"],window.cancelAnimationFrame=window[n[r]+"CancelAnimationFrame"]||window[n[r]+"CancelRequestAnimationFrame"];window.requestAnimationFrame||(window.requestAnimationFrame=function(n){var r=Date.now(),e=Math.max(0,16-(r-t)),i=window.setTimeout((function(){n(r+e)}),e);return t=r+e,i},window.cancelAnimationFrame=window.clearTimeout)}();var D=/\.0+$/g;function Q(t){return Number.isInteger(t)?t+"":t.toFixed(6).replace(D,"")}function U(t){var n=arguments.length>1&&void 0!==arguments[1]?arguments[1]:" ";return t&&t.length?t.map(Q).join(n):""}function V(t){return t?null==t.a||t.a>=1?"rgb("+t.r+","+t.g+","+t.b+")":"rgba("+t.r+","+t.g+","+t.b+","+t.a+")":"transparent"}var $={f:null,i:function(t,n,r){return 0===t?n:1===t?r:{x:w(t,n.x,r.x),y:w(t,n.y,r.y)}},u:function(t,n){return function(r){var e=n(r);t.setAttribute("rx",Q(e.x)),t.setAttribute("ry",Q(e.y))}}},G={f:null,i:function(t,n,r){return 0===t?n:1===t?r:{width:w(t,n.width,r.width),height:w(t,n.height,r.height)}},u:function(t,n){return function(r){var e=n(r);t.setAttribute("width",Q(e.width)),t.setAttribute("height",Q(e.height))}}},H=Math.sin,Y=Math.cos,Z=Math.acos,J=Math.asin,K=Math.tan,W=Math.atan2,X=Math.PI/180,tt=180/Math.PI,nt=Math.sqrt,rt=function(){function t(){var r=arguments.length>0&&void 0!==arguments[0]?arguments[0]:1,e=arguments.length>1&&void 0!==arguments[1]?arguments[1]:0,i=arguments.length>2&&void 0!==arguments[2]?arguments[2]:0,o=arguments.length>3&&void 0!==arguments[3]?arguments[3]:1,u=arguments.length>4&&void 0!==arguments[4]?arguments[4]:0,a=arguments.length>5&&void 0!==arguments[5]?arguments[5]:0;n(this,t),this.m=[r,e,i,o,u,a],this.i=null,this.w=null,this.s=null}return e(t,[{key:"determinant",get:function(){var t=this.m;return t[0]*t[3]-t[1]*t[2]}},{key:"isIdentity",get:function(){if(null===this.i){var t=this.m;this.i=1===t[0]&&0===t[1]&&0===t[2]&&1===t[3]&&0===t[4]&&0===t[5]}return this.i}},{key:"point",value:function(t,n){var r=this.m;return{x:r[0]*t+r[2]*n+r[4],y:r[1]*t+r[3]*n+r[5]}}},{key:"translateSelf",value:function(){var t=arguments.length>0&&void 0!==arguments[0]?arguments[0]:0,n=arguments.length>1&&void 0!==arguments[1]?arguments[1]:0;if(!t&&!n)return this;var r=this.m;return r[4]+=r[0]*t+r[2]*n,r[5]+=r[1]*t+r[3]*n,this.w=this.s=this.i=null,this}},{key:"rotateSelf",value:function(){var t=arguments.length>0&&void 0!==arguments[0]?arguments[0]:0;if(t%=360){var n=H(t*=X),r=Y(t),e=this.m,i=e[0],o=e[1];e[0]=i*r+e[2]*n,e[1]=o*r+e[3]*n,e[2]=e[2]*r-i*n,e[3]=e[3]*r-o*n,this.w=this.s=this.i=null}return this}},{key:"scaleSelf",value:function(){var t=arguments.length>0&&void 0!==arguments[0]?arguments[0]:1,n=arguments.length>1&&void 0!==arguments[1]?arguments[1]:1;if(1!==t||1!==n){var r=this.m;r[0]*=t,r[1]*=t,r[2]*=n,r[3]*=n,this.w=this.s=this.i=null}return this}},{key:"skewSelf",value:function(t,n){if(n%=360,(t%=360)||n){var r=this.m,e=r[0],i=r[1],o=r[2],u=r[3];t&&(t=K(t*X),r[2]+=e*t,r[3]+=i*t),n&&(n=K(n*X),r[0]+=o*n,r[1]+=u*n),this.w=this.s=this.i=null}return this}},{key:"resetSelf",value:function(){var t=arguments.length>0&&void 0!==arguments[0]?arguments[0]:1,n=arguments.length>1&&void 0!==arguments[1]?arguments[1]:0,r=arguments.length>2&&void 0!==arguments[2]?arguments[2]:0,e=arguments.length>3&&void 0!==arguments[3]?arguments[3]:1,i=arguments.length>4&&void 0!==arguments[4]?arguments[4]:0,o=arguments.length>5&&void 0!==arguments[5]?arguments[5]:0,u=this.m;return u[0]=t,u[1]=n,u[2]=r,u[3]=e,u[4]=i,u[5]=o,this.w=this.s=this.i=null,this}},{key:"recomposeSelf",value:function(){var t=arguments.length>0&&void 0!==arguments[0]?arguments[0]:null,n=arguments.length>1&&void 0!==arguments[1]?arguments[1]:null,r=arguments.length>2&&void 0!==arguments[2]?arguments[2]:null,e=arguments.length>3&&void 0!==arguments[3]?arguments[3]:null,i=arguments.length>4&&void 0!==arguments[4]?arguments[4]:null;return this.isIdentity||this.resetSelf(),t&&(t.x||t.y)&&this.translateSelf(t.x,t.y),n&&this.rotateSelf(n),r&&(r.x&&this.skewSelf(r.x,0),r.y&&this.skewSelf(0,r.y)),!e||1===e.x&&1===e.y||this.scaleSelf(e.x,e.y),i&&(i.x||i.y)&&this.translateSelf(i.x,i.y),this}},{key:"decompose",value:function(){var t=arguments.length>0&&void 0!==arguments[0]?arguments[0]:0,n=arguments.length>1&&void 0!==arguments[1]?arguments[1]:0,r=this.m,e=r[0]*r[0]+r[1]*r[1],i=[[r[0],r[1]],[r[2],r[3]]],o=nt(e);if(0===o)return{origin:{x:r[4],y:r[5]},translate:{x:t,y:n},scale:{x:0,y:0},skew:{x:0,y:0},rotate:0};i[0][0]/=o,i[0][1]/=o;var u=r[0]*r[3]-r[1]*r[2]<0;u&&(o=-o);var a=i[0][0]*i[1][0]+i[0][1]*i[1][1];i[1][0]-=i[0][0]*a,i[1][1]-=i[0][1]*a;var l=nt(i[1][0]*i[1][0]+i[1][1]*i[1][1]);if(0===l)return{origin:{x:r[4],y:r[5]},translate:{x:t,y:n},scale:{x:o,y:0},skew:{x:0,y:0},rotate:0};i[1][0]/=l,i[1][1]/=l,a/=l;var f=0;return i[1][1]<0?(f=Z(i[1][1])*tt,i[0][1]<0&&(f=360-f)):f=J(i[0][1])*tt,u&&(f=-f),a=W(a,nt(i[0][0]*i[0][0]+i[0][1]*i[0][1]))*tt,u&&(a=-a),{origin:{x:r[4],y:r[5]},translate:{x:t,y:n},scale:{x:o,y:l},skew:{x:a,y:0},rotate:f}}},{key:"toString",value:function(){return null===this.s&&(this.s="matrix("+this.m.map(it).join(" ")+")"),this.s}}]),t}(),et=/\.0+$/;function it(t){return Number.isInteger(t)?t:t.toFixed(14).replace(et,"")}Object.freeze({M:2,L:2,Z:0,H:1,V:1,C:6,Q:4,T:2,S:4,A:7});var ot={},ut=null;function at(n){var r=function(){if(ut)return ut;if("object"!==("undefined"==typeof document?"undefined":t(document)))return{};var n=document.createElementNS("http://www.w3.org/2000/svg","svg");return n.style.position="absolute",n.style.opacity="0.01",n.style.zIndex="-9999",n.style.left="-9999px",n.style.width="1px",n.style.height="1px",ut={svg:n}}().svg;if(!r)return function(t){return null};var e=document.createElementNS(r.namespaceURI,"path");e.setAttributeNS(null,"d",n),e.setAttributeNS(null,"fill","none"),e.setAttributeNS(null,"stroke","none"),r.appendChild(e);var i=e.getTotalLength();return function(t){var n=e.getPointAtLength(i*t);return{x:n.x,y:n.y}}}function lt(t){return ot[t]?ot[t]:ot[t]=at(t)}function ft(t,n,r,e){if(!t||!e)return!1;var i=["M",t.x,t.y];if(n&&r&&(i.push("C"),i.push(n.x),i.push(n.y),i.push(r.x),i.push(r.y)),n?!r:r){var o=n||r;i.push("Q"),i.push(o.x),i.push(o.y)}return n||r||i.push("L"),i.push(e.x),i.push(e.y),i.join(" ")}function st(t,n,r,e){var i=arguments.length>4&&void 0!==arguments[4]?arguments[4]:1,o=ft(t,n,r,e),u=lt(o);try{return u(i)}catch(t){return null}}function ct(t,n,r,e){var i=1-e;return i*i*t+2*i*e*n+e*e*r}function ht(t,n,r,e){return 2*(1-e)*(n-t)+2*e*(r-n)}function vt(t,n,r,e){var i=arguments.length>4&&void 0!==arguments[4]&&arguments[4],o=st(t,n,null,r,e);return o||(o={x:ct(t.x,n.x,r.x,e),y:ct(t.y,n.y,r.y,e)}),i&&(o.a=yt(t,n,r,e)),o}function yt(t,n,r,e){return Math.atan2(ht(t.y,n.y,r.y,e),ht(t.x,n.x,r.x,e))}function dt(t,n,r,e,i){var o=i*i;return i*o*(e-t+3*(n-r))+3*o*(t+r-2*n)+3*i*(n-t)+t}function gt(t,n,r,e,i){var o=1-i;return 3*(o*o*(n-t)+2*o*i*(r-n)+i*i*(e-r))}function pt(t,n,r,e,i){var o=arguments.length>5&&void 0!==arguments[5]&&arguments[5],u=st(t,n,r,e,i);return u||(u={x:dt(t.x,n.x,r.x,e.x,i),y:dt(t.y,n.y,r.y,e.y,i)}),o&&(u.a=mt(t,n,r,e,i)),u}function mt(t,n,r,e,i){return Math.atan2(gt(t.y,n.y,r.y,e.y,i),gt(t.x,n.x,r.x,e.x,i))}function bt(t,n,r){return t+(n-t)*r}function wt(t,n,r){var e=arguments.length>3&&void 0!==arguments[3]&&arguments[3],i={x:bt(t.x,n.x,r),y:bt(t.y,n.y,r)};return e&&(i.a=xt(t,n)),i}function xt(t,n){return Math.atan2(n.y-t.y,n.x-t.x)}function kt(t,n,r){var e=arguments.length>3&&void 0!==arguments[3]&&arguments[3];if(_t(n)){if(St(r))return vt(n,r.start,r,t,e)}else if(_t(r)){if(n.end)return vt(n,n.end,r,t,e)}else{if(n.end)return r.start?pt(n,n.end,r.start,r,t,e):vt(n,n.end,r,t,e);if(r.start)return vt(n,r.start,r,t,e)}return wt(n,r,t,e)}function At(t,n,r){var e=kt(t,n,r,!0);return e.a=function(t){var n=arguments.length>1&&void 0!==arguments[1]&&arguments[1];return n?t+Math.PI:t}(e.a)/p,e}function _t(t){return!t.type||"corner"===t.type}function St(t){return null!=t.start&&!_t(t)}var Ot=new rt;var Mt={f:Q,i:b},jt={f:Q,i:function(t,n,r){var e=b(t,n,r);return e<=0?0:e>=1?1:e}};function Ft(t,n,r,e,i,o,u,a){return n=function(t,n,r){for(var e,i,o,u=t.length-1,a={},l=0;l<=u;l++)(e=t[l]).e&&(e.e=n(e.e)),e.v&&"g"===(i=e.v).t&&i.r&&(o=r.getElementById(i.r))&&(a[i.r]=o.querySelectorAll("stop"));return a}(t,e,a),function(e){var i,o=r(e,t,Pt);return o?"c"===o.t?V(o.v):"g"===o.t?(n[o.r]&&function(t,n){for(var r=0,e=t.length;r<e;r++)t[r].setAttribute("stop-color",V(n[r]))}(n[o.r],o.v),(i=o.r)?"url(#"+i+")":"none"):"none":"none"}}function Pt(t,n,r){if(0===t)return n;if(1===t)return r;if(n&&r){var e=n.t;if(e===r.t)switch(n.t){case"c":return{t:e,v:A(t,n.v,r.v)};case"g":if(n.r===r.r)return{t:e,v:_(t,n.v,r.v),r:n.r}}}return m(t,n,r)}var Bt={fill:Ft,"fill-opacity":jt,stroke:Ft,"stroke-opacity":jt,"stroke-width":Mt,"stroke-dashoffset":{f:Q,i:b},"stroke-dasharray":{f:function(t){var n=arguments.length>1&&void 0!==arguments[1]?arguments[1]:" ";return t&&t.length>0&&(t=t.map((function(t){return Math.floor(1e4*t)/1e4}))),U(t,n)},i:function(t,n,r){var e,i,o,u=n.length,a=r.length;if(u!==a)if(0===u)n=S(u=a,0);else if(0===a)a=u,r=S(u,0);else{var l=(o=(e=u)*(i=a)/function(t,n){for(var r;n;)r=n,n=t%n,t=r;return t||1}(e,i))<0?-o:o;n=O(n,Math.floor(l/u)),r=O(r,Math.floor(l/a)),u=a=l}for(var f=[],s=0;s<u;s++)f.push(g(w(t,n[s],r[s]),6));return f}},opacity:jt,transform:function(n,r,e,i){if(!(n=function(n,r){if(!n||"object"!==t(n))return null;var e=!1;for(var i in n)n.hasOwnProperty(i)&&(n[i]&&n[i].length?(n[i].forEach((function(t){t.e&&(t.e=r(t.e))})),e=!0):delete n[i]);return e?n:null}(n,i)))return null;var o=function(t,i,o){var u=arguments.length>3&&void 0!==arguments[3]?arguments[3]:null;return n[t]?e(i,n[t],o):r&&r[t]?r[t]:u};return r&&r.a&&n.o?function(t){var r=e(t,n.o,At);return Ot.recomposeSelf(r,o("r",t,b,0)+r.a,o("k",t,x),o("s",t,x),o("t",t,x)).toString()}:function(t){return Ot.recomposeSelf(o("o",t,kt,null),o("r",t,b,0),o("k",t,x),o("s",t,x),o("t",t,x)).toString()}},r:Mt,"#size":G,"#radius":$,_:function(t,n){if(Array.isArray(t))for(var r=0;r<t.length;r++)this[t[r]]=n;else this[t]=n}};return function(t){!function(t,n){if("function"!=typeof n&&null!==n)throw new TypeError("Super expression must either be null or a function");t.prototype=Object.create(n&&n.prototype,{constructor:{value:t,writable:!0,configurable:!0}}),n&&o(t,n)}(u,t);var r=a(u);function u(){return n(this,u),r.apply(this,arguments)}return e(u,null,[{key:"build",value:function(t){var n=l(i(u),"build",this).call(this,t,Bt);n.el,n.options;var r=n.player;return function(t,n,r){t.play()}(r),r}}]),u}(L)}));
__SVGATOR_PLAYER__.build({"root":"ewaBVqEo52A1","animations":[{"duration":3000,"direction":1,"iterations":1,"fill":1,"alternate":false,"speed":1,"elements":{"ewaBVqEo52A44":{"transform":{"data":{"t":{"x":-745.218933105,"y":-212.618515015}},"keys":{"o":[{"t":0,"v":{"x":748.8248017050007,"y":212.5985598299996,"type":"corner"}},{"t":1500,"v":{"x":741.1119482200006,"y":196.6462625949994,"type":"corner"}},{"t":3000,"v":{"x":748.8243682750017,"y":212.60339896499883,"type":"corner"}}],"r":[{"t":0,"v":0.50939106049484},{"t":1500,"v":16.660949018347875},{"t":3000,"v":0.51}]}}}}}],"options":{"start":"load","hover":"freeze","click":"freeze","scroll":25,"font":"embed","exportedIds":"unique","svgFormat":"animated","title":"grow"},"animationSettings":{"duration":3000,"direction":1,"iterations":1,"fill":1,"alternate":false,"speed":1}})]]></script></svg>